<svg width="157" height="25" viewBox="0 0 157 25" fill="none" xmlns="http://www.w3.org/2000/svg">
  <g clip-path="url(#clip0)">
    <path d="M7.65967 16.7773H6.40967V18.0073L7.63951 18.0272L7.65967 16.7773ZM7.65967 12.0576V10.8076H6.40967V12.0576H7.65967ZM6.78955 23V24.25H8.03955V23H6.78955ZM1.43701 23H0.187012V24.25H1.43701V23ZM1.77979 8.94629L0.588411 8.56785L0.585678 8.57668L1.77979 8.94629ZM2.97949 6.86328L2.04521 6.03281L2.03957 6.03924L2.97949 6.86328ZM12.8936 6.40186L12.0128 7.28888L12.016 7.29199L12.8936 6.40186ZM13.0913 15.2744L12.2145 14.3835L12.2113 14.3867L13.0913 15.2744ZM8.47705 16.7905L8.45689 18.0404L8.46697 18.0405H8.47705V16.7905ZM8.90967 16.7773V12.0576H6.40967V16.7773H8.90967ZM7.65967 13.3076C8.32413 13.3076 9.05152 13.1868 9.63487 12.741C10.2818 12.2466 10.5312 11.5277 10.5312 10.8184H8.03125C8.03125 10.8902 8.01947 10.8944 8.03415 10.8608C8.05205 10.8197 8.08436 10.7794 8.11684 10.7546C8.14261 10.7349 8.13642 10.7495 8.06054 10.7688C7.98303 10.7886 7.8544 10.8076 7.65967 10.8076V13.3076ZM10.5312 10.8184C10.5312 10.2177 10.362 9.54601 9.8152 9.04576C9.28947 8.56477 8.62158 8.43457 8.04199 8.43457V10.9346C8.15721 10.9346 8.21014 10.9482 8.21954 10.9511C8.22426 10.9525 8.18176 10.9398 8.12767 10.8903C8.10185 10.8667 8.07952 10.8401 8.06171 10.813C8.04413 10.7861 8.03427 10.7638 8.02932 10.7502C8.02017 10.7251 8.03125 10.74 8.03125 10.8184H10.5312ZM8.04199 8.43457C7.35136 8.43457 6.63396 8.66238 6.12899 9.2896C5.66572 9.86504 5.53955 10.5867 5.53955 11.2402H8.03955C8.03955 11.0607 8.05805 10.9472 8.07511 10.8836C8.0915 10.8226 8.10132 10.8263 8.07633 10.8574C8.04679 10.8941 8.00567 10.9229 7.97223 10.9367C7.94643 10.9474 7.96042 10.9346 8.04199 10.9346V8.43457ZM5.53955 11.2402V23H8.03955V11.2402H5.53955ZM6.78955 21.75H1.43701V24.25H6.78955V21.75ZM2.68701 23V11.7939H0.187012V23H2.68701ZM2.68701 11.7939C2.68701 10.7029 2.79601 9.89059 2.97389 9.31589L0.585678 8.57668C0.306528 9.47855 0.187012 10.5646 0.187012 11.7939H2.68701ZM2.97113 9.32472C3.15177 8.75601 3.46039 8.2109 3.91942 7.68732L2.03957 6.03924C1.3736 6.79887 0.882406 7.64243 0.588444 8.56786L2.97113 9.32472ZM3.91375 7.69374C4.41586 7.12886 5.05382 6.66902 5.85133 6.32195L4.85374 4.02961C3.75282 4.50872 2.80874 5.17387 2.04523 6.03283L3.91375 7.69374ZM5.85133 6.32195C6.64709 5.97565 7.45758 5.80615 8.29248 5.80615V3.30615C7.1059 3.30615 5.95643 3.54974 4.85374 4.02961L5.85133 6.32195ZM8.29248 5.80615C9.80781 5.80615 11.0196 6.30274 12.0128 7.28888L13.7743 5.51483C12.289 4.04003 10.4334 3.30615 8.29248 3.30615V5.80615ZM12.016 7.29199C13.0158 8.27773 13.5156 9.47757 13.5156 10.9766H16.0156C16.0156 8.83688 15.2674 6.98692 13.7711 5.51173L12.016 7.29199ZM13.5156 10.9766C13.5156 12.4551 13.0605 13.5508 12.2145 14.3835L13.9681 16.1653C15.3545 14.8007 16.0156 13.0313 16.0156 10.9766H13.5156ZM12.2113 14.3867C11.511 15.081 10.3473 15.5405 8.47705 15.5405V18.0405C10.7201 18.0405 12.6326 17.4894 13.9714 16.1621L12.2113 14.3867ZM8.49721 15.5407L7.67983 15.5275L7.63951 18.0272L8.45689 18.0404L8.49721 15.5407ZM33.9657 7.33789L33.0734 8.21328L33.0755 8.21542L33.9657 7.33789ZM20.5843 7.29834L19.7089 6.40608L19.7068 6.40815L20.5843 7.29834ZM24.4471 16.9224L23.5438 17.7864L23.5487 17.7915L24.4471 16.9224ZM30.0633 16.9355L29.16 16.0715L29.1598 16.0717L30.0633 16.9355ZM30.0633 11.0688L29.1551 11.9278L29.1648 11.9378L30.0633 11.0688ZM27.4134 5.80615C29.6194 5.80615 31.484 6.59321 33.0734 8.21328L34.858 6.46251C32.8087 4.37359 30.3051 3.30615 27.4134 3.30615V5.80615ZM33.0755 8.21542C34.6751 9.83807 35.4579 11.7429 35.4579 13.9956H37.9579C37.9579 11.0803 36.9125 8.5467 34.8559 6.46036L33.0755 8.21542ZM35.4579 13.9956C35.4579 16.2963 34.6681 18.2095 33.0686 19.809L34.8364 21.5768C36.9108 19.5024 37.9579 16.9507 37.9579 13.9956H35.4579ZM33.0686 19.809C31.4692 21.4084 29.556 22.1982 27.2552 22.1982V24.6982C30.2104 24.6982 32.762 23.6511 34.8364 21.5768L33.0686 19.809ZM27.2552 22.1982C24.9764 22.1982 23.0663 21.4071 21.455 19.7958L19.6873 21.5636C21.7674 23.6437 24.3134 24.6982 27.2552 24.6982V22.1982ZM21.455 19.7958C19.8438 18.1845 19.0526 16.2745 19.0526 13.9956H16.5526C16.5526 16.9375 17.6071 19.4834 19.6873 21.5636L21.455 19.7958ZM19.0526 13.9956C19.0526 11.6888 19.849 9.77844 21.4619 8.18853L19.7068 6.40815C17.6107 8.47449 16.5526 11.029 16.5526 13.9956H19.0526ZM21.4598 8.1906C23.0816 6.5994 25.0403 5.80615 27.4134 5.80615V3.30615C24.4077 3.30615 21.8137 4.34103 19.7089 6.40608L21.4598 8.1906ZM27.2552 8.60596C25.8084 8.60596 24.5482 9.15484 23.5438 10.2048L25.3504 11.9329C25.893 11.3657 26.5048 11.106 27.2552 11.106V8.60596ZM23.5438 10.2048C22.5427 11.2515 22.037 12.5387 22.037 13.9956H24.537C24.537 13.1674 24.8047 12.5034 25.3504 11.9329L23.5438 10.2048ZM22.037 13.9956C22.037 15.4525 22.5427 16.7398 23.5438 17.7864L25.3504 16.0583C24.8047 15.4878 24.537 14.8238 24.537 13.9956H22.037ZM23.5487 17.7915C24.5579 18.8347 25.8146 19.3853 27.2552 19.3853V16.8853C26.5162 16.8853 25.9008 16.6272 25.3455 16.0532L23.5487 17.7915ZM27.2552 19.3853C28.7036 19.3853 29.9662 18.8461 30.9669 17.7993L29.1598 16.0717C28.6312 16.6246 28.0217 16.8853 27.2552 16.8853V19.3853ZM30.9666 17.7996C31.9697 16.751 32.4735 15.4585 32.4735 13.9956H29.9735C29.9735 14.8354 29.7039 15.5029 29.16 16.0715L30.9666 17.7996ZM32.4735 13.9956C32.4735 12.5325 31.9693 11.2417 30.9619 10.1999L29.1648 11.9378C29.7042 12.4956 29.9735 13.156 29.9735 13.9956H32.4735ZM30.9716 10.21C29.9721 9.15312 28.7082 8.60596 27.2552 8.60596V11.106C28.0171 11.106 28.6253 11.3674 29.1551 11.9277L30.9716 10.21ZM46.4817 9.84277V8.59277H45.2317V9.84277H46.4817ZM46.4817 23V24.25H47.7317V23H46.4817ZM41.1291 23H39.8791V24.25H41.1291V23ZM41.1291 5.00439V3.75439H39.8791V5.00439H41.1291ZM52.8625 6.56006L53.7008 5.63284L53.6991 5.63129L52.8625 6.56006ZM52.4011 15.5776L51.6295 14.5942L50.8823 15.1804L51.2468 16.0574L52.4011 15.5776ZM55.4861 23V24.25H57.3593L56.6403 22.5202L55.4861 23ZM49.8698 23L48.729 23.5108L49.0599 24.25H49.8698V23ZM47.2727 17.1992H46.0227V17.4663L46.1318 17.71L47.2727 17.1992ZM47.2727 12.5718V11.3218H46.0227V12.5718H47.2727ZM45.2317 9.84277V23H47.7317V9.84277H45.2317ZM46.4817 21.75H41.1291V24.25H46.4817V21.75ZM42.3791 23V5.00439H39.8791V23H42.3791ZM41.1291 6.25439H47.9978V3.75439H41.1291V6.25439ZM47.9978 6.25439C49.8901 6.25439 51.1742 6.72164 52.0259 7.48882L53.6991 5.63129C52.2481 4.32426 50.2891 3.75439 47.9978 3.75439V6.25439ZM52.0242 7.48728C53.0361 8.40213 53.5373 9.53315 53.5373 10.9766H56.0373C56.0373 8.85161 55.2554 7.0383 53.7008 5.63284L52.0242 7.48728ZM53.5373 10.9766C53.5373 12.3657 52.9567 13.553 51.6295 14.5942L53.1726 16.5611C55.0271 15.1062 56.0373 13.2261 56.0373 10.9766H53.5373ZM51.2468 16.0574L54.3318 23.4798L56.6403 22.5202L53.5554 15.0979L51.2468 16.0574ZM55.4861 21.75H49.8698V24.25H55.4861V21.75ZM51.0107 22.4892L48.4135 16.6884L46.1318 17.71L48.729 23.5108L51.0107 22.4892ZM48.5227 17.1992V12.5718H46.0227V17.1992H48.5227ZM47.2727 13.8218H47.6945V11.3218H47.2727V13.8218ZM47.6945 13.8218C48.4073 13.8218 49.1751 13.6727 49.7749 13.1573C50.4109 12.6107 50.632 11.8513 50.632 11.1216H48.132C48.132 11.2449 48.1138 11.2972 48.1112 11.304C48.1102 11.3066 48.1123 11.3005 48.1198 11.2897C48.1275 11.2787 48.1368 11.2687 48.1455 11.2612C48.1828 11.2292 48.1068 11.3218 47.6945 11.3218V13.8218ZM50.632 11.1216C50.632 10.322 50.2955 9.58633 49.5795 9.11701C48.9554 8.70797 48.178 8.59277 47.4309 8.59277V11.0928C47.6917 11.0928 47.8832 11.1145 48.0177 11.1439C48.153 11.1734 48.2046 11.205 48.2091 11.2079C48.21 11.2085 48.2001 11.2021 48.1857 11.1864C48.1709 11.1702 48.1569 11.1503 48.1459 11.1288C48.1226 11.0829 48.132 11.0685 48.132 11.1216H50.632ZM47.4309 8.59277H46.4817V11.0928H47.4309V8.59277ZM67.0133 10.1724V8.92236H65.7633V10.1724H67.0133ZM67.0133 23V24.25H68.2633V23H67.0133ZM61.6607 23H60.4107V24.25H61.6607V23ZM61.6607 10.1724H62.9107V8.92236H61.6607V10.1724ZM57.5606 10.1724H56.3106V11.4224H57.5606V10.1724ZM57.5606 5.00439V3.75439H56.3106V5.00439H57.5606ZM71.1002 5.00439H72.3502V3.75439H71.1002V5.00439ZM71.1002 10.1724V11.4224H72.3502V10.1724H71.1002ZM65.7633 10.1724V23H68.2633V10.1724H65.7633ZM67.0133 21.75H61.6607V24.25H67.0133V21.75ZM62.9107 23V10.1724H60.4107V23H62.9107ZM61.6607 8.92236H57.5606V11.4224H61.6607V8.92236ZM58.8106 10.1724V5.00439H56.3106V10.1724H58.8106ZM57.5606 6.25439H71.1002V3.75439H57.5606V6.25439ZM69.8502 5.00439V10.1724H72.3502V5.00439H69.8502ZM71.1002 8.92236H67.0133V11.4224H71.1002V8.92236ZM81.7309 13.4814H82.9809V12.2314H81.7309V13.4814ZM81.7309 18.3066V19.5566H82.9809V18.3066H81.7309ZM79.9511 18.3066V17.0566H78.7011V18.3066H79.9511ZM79.9511 23V24.25H81.2011V23H79.9511ZM74.5986 23H73.3486V24.25H74.5986V23ZM76.5366 6.62598L75.627 5.76855L75.6268 5.76873L76.5366 6.62598ZM86.8857 7.36426L87.6225 8.374L88.6647 7.61349L87.8716 6.59587L86.8857 7.36426ZM82.4955 10.5679L81.3191 10.9902L81.8833 12.5621L83.2324 11.5776L82.4955 10.5679ZM79.9511 13.4814H78.7011V14.7314H79.9511V13.4814ZM80.4809 13.4814V18.3066H82.9809V13.4814H80.4809ZM81.7309 17.0566H79.9511V19.5566H81.7309V17.0566ZM78.7011 18.3066V23H81.2011V18.3066H78.7011ZM79.9511 21.75H74.5986V24.25H79.9511V21.75ZM75.8486 23V11.8335H73.3486V23H75.8486ZM75.8486 11.8335C75.8486 10.0118 76.3987 8.595 77.4463 7.48323L75.6268 5.76873C74.0905 7.39914 73.3486 9.45398 73.3486 11.8335H75.8486ZM77.4461 7.48341C78.5008 6.36465 79.8016 5.80615 81.4409 5.80615V3.30615C79.1426 3.30615 77.1739 4.12754 75.627 5.76855L77.4461 7.48341ZM81.4409 5.80615C83.187 5.80615 84.6522 6.53193 85.8997 8.13264L87.8716 6.59587C86.2012 4.45244 84.0365 3.30615 81.4409 3.30615V5.80615ZM86.1488 6.35452L81.7587 9.55813L83.2324 11.5776L87.6225 8.374L86.1488 6.35452ZM83.672 10.1455C83.4942 9.65018 83.2094 9.17023 82.7583 8.81477C82.2925 8.44783 81.7455 8.28955 81.1904 8.28955V10.7896C81.2313 10.7896 81.2441 10.795 81.238 10.7931C81.2303 10.7906 81.2192 10.7849 81.2111 10.7785C81.195 10.7658 81.2508 10.8 81.3191 10.9902L83.672 10.1455ZM81.1904 8.28955C80.4548 8.28955 79.7321 8.56602 79.248 9.23559C78.8182 9.83003 78.7011 10.5689 78.7011 11.2534H81.2011C81.2011 11.0391 81.2209 10.8914 81.2438 10.7965C81.2665 10.7023 81.2866 10.6828 81.2739 10.7004C81.2556 10.7257 81.2184 10.7603 81.1715 10.7819C81.1315 10.8003 81.1271 10.7896 81.1904 10.7896V8.28955ZM78.7011 11.2534V13.4814H81.2011V11.2534H78.7011ZM79.9511 14.7314H81.7309V12.2314H79.9511V14.7314ZM104.939 7.33789L104.046 8.21328L104.049 8.21542L104.939 7.33789ZM91.5574 7.29834L90.682 6.40608L90.6799 6.40815L91.5574 7.29834ZM95.4202 16.9224L94.5169 17.7864L94.5218 17.7915L95.4202 16.9224ZM101.036 16.9355L100.133 16.0715L100.133 16.0717L101.036 16.9355ZM101.036 11.0688L100.128 11.9278L100.138 11.9378L101.036 11.0688ZM98.3865 5.80615C100.592 5.80615 102.457 6.59321 104.046 8.21328L105.831 6.46251C103.782 4.37359 101.278 3.30615 98.3865 3.30615V5.80615ZM104.049 8.21542C105.648 9.83807 106.431 11.7429 106.431 13.9956H108.931C108.931 11.0803 107.886 8.5467 105.829 6.46036L104.049 8.21542ZM106.431 13.9956C106.431 16.2963 105.641 18.2095 104.042 19.809L105.809 21.5768C107.884 19.5024 108.931 16.9507 108.931 13.9956H106.431ZM104.042 19.809C102.442 21.4084 100.529 22.1982 98.2283 22.1982V24.6982C101.183 24.6982 103.735 23.6511 105.809 21.5768L104.042 19.809ZM98.2283 22.1982C95.9495 22.1982 94.0394 21.4071 92.4281 19.7958L90.6604 21.5636C92.7405 23.6437 95.2865 24.6982 98.2283 24.6982V22.1982ZM92.4281 19.7958C90.8168 18.1845 90.0257 16.2745 90.0257 13.9956H87.5257C87.5257 16.9375 88.5802 19.4834 90.6604 21.5636L92.4281 19.7958ZM90.0257 13.9956C90.0257 11.6888 90.8221 9.77844 92.435 8.18853L90.6799 6.40815C88.5837 8.47449 87.5257 11.029 87.5257 13.9956H90.0257ZM92.4328 8.1906C94.0546 6.5994 96.0134 5.80615 98.3865 5.80615V3.30615C95.3807 3.30615 92.7868 4.34103 90.682 6.40608L92.4328 8.1906ZM98.2283 8.60596C96.7815 8.60596 95.5212 9.15484 94.5169 10.2048L96.3235 11.9329C96.8661 11.3657 97.4779 11.106 98.2283 11.106V8.60596ZM94.5169 10.2048C93.5158 11.2515 93.0101 12.5387 93.0101 13.9956H95.5101C95.5101 13.1674 95.7778 12.5034 96.3235 11.9329L94.5169 10.2048ZM93.0101 13.9956C93.0101 15.4525 93.5158 16.7398 94.5169 17.7864L96.3235 16.0583C95.7778 15.4878 95.5101 14.8238 95.5101 13.9956H93.0101ZM94.5218 17.7915C95.531 18.8347 96.7877 19.3853 98.2283 19.3853V16.8853C97.4893 16.8853 96.8739 16.6272 96.3186 16.0532L94.5218 17.7915ZM98.2283 19.3853C99.6767 19.3853 100.939 18.8461 101.94 17.7993L100.133 16.0717C99.6043 16.6246 98.9948 16.8853 98.2283 16.8853V19.3853ZM101.94 17.7996C102.943 16.751 103.447 15.4585 103.447 13.9956H100.947C100.947 14.8354 100.677 15.5029 100.133 16.0715L101.94 17.7996ZM103.447 13.9956C103.447 12.5325 102.942 11.2417 101.935 10.1999L100.138 11.9378C100.677 12.4956 100.947 13.156 100.947 13.9956H103.447ZM101.945 10.21C100.945 9.15312 99.6813 8.60596 98.2283 8.60596V11.106C98.9902 11.106 99.5983 11.3674 100.128 11.9277L101.945 10.21ZM111.733 5.00439V3.75439H110.483V5.00439H111.733ZM117.086 5.00439H118.336V3.75439H117.086V5.00439ZM117.481 17.3706L116.569 18.2255L116.583 18.2402L116.597 18.2545L117.481 17.3706ZM119.353 17.7793H120.603V16.5293H119.353V17.7793ZM119.353 23V24.25H120.603V23H119.353ZM113.368 21.2993L112.463 22.1621L112.467 22.1656L113.368 21.2993ZM111.733 6.25439H117.086V3.75439H111.733V6.25439ZM115.836 5.00439V15.6963H118.336V5.00439H115.836ZM115.836 15.6963C115.836 16.1709 115.872 16.6232 115.968 17.0285C116.061 17.4239 116.232 17.8663 116.569 18.2255L118.393 16.5157C118.466 16.5936 118.439 16.6164 118.401 16.4537C118.365 16.3009 118.336 16.0567 118.336 15.6963H115.836ZM116.597 18.2545C116.945 18.6026 117.378 18.7866 117.774 18.888C118.175 18.9907 118.618 19.0293 119.076 19.0293V16.5293C118.744 16.5293 118.525 16.4997 118.394 16.4662C118.258 16.4314 118.289 16.4111 118.365 16.4867L116.597 18.2545ZM119.076 19.0293H119.353V16.5293H119.076V19.0293ZM118.103 17.7793V23H120.603V17.7793H118.103ZM119.353 21.75H117.929V24.25H119.353V21.75ZM117.929 21.75C116.231 21.75 115.069 21.2652 114.269 20.4331L112.467 22.1656C113.846 23.601 115.725 24.25 117.929 24.25V21.75ZM114.272 20.4366C113.461 19.5864 112.983 18.3471 112.983 16.5532H110.483C110.483 18.8023 111.095 20.7271 112.463 22.1621L114.272 20.4366ZM112.983 16.5532V5.00439H110.483V16.5532H112.983ZM128.415 5.00439H129.665V3.75439H128.415V5.00439ZM128.415 23V24.25H129.665V23H128.415ZM123.063 23H121.813V24.25H123.063V23ZM123.063 5.00439V3.75439H121.813V5.00439H123.063ZM127.165 5.00439V23H129.665V5.00439H127.165ZM128.415 21.75H123.063V24.25H128.415V21.75ZM124.313 23V5.00439H121.813V23H124.313ZM123.063 6.25439H128.415V3.75439H123.063V6.25439ZM148.999 7.33789L148.107 8.21328L148.109 8.21542L148.999 7.33789ZM135.618 7.29834L134.743 6.40608L134.741 6.40815L135.618 7.29834ZM139.481 16.9224L138.578 17.7864L138.582 17.7915L139.481 16.9224ZM145.097 16.9355L144.194 16.0715L144.194 16.0717L145.097 16.9355ZM145.097 11.0688L144.189 11.9278L144.198 11.9378L145.097 11.0688ZM142.447 5.80615C144.653 5.80615 146.518 6.59321 148.107 8.21328L149.892 6.46251C147.842 4.37359 145.339 3.30615 142.447 3.30615V5.80615ZM148.109 8.21542C149.709 9.83807 150.492 11.7429 150.492 13.9956H152.992C152.992 11.0803 151.946 8.5467 149.89 6.46036L148.109 8.21542ZM150.492 13.9956C150.492 16.2963 149.702 18.2095 148.102 19.809L149.87 21.5768C151.944 19.5024 152.992 16.9507 152.992 13.9956H150.492ZM148.102 19.809C146.503 21.4084 144.59 22.1982 142.289 22.1982V24.6982C145.244 24.6982 147.796 23.6511 149.87 21.5768L148.102 19.809ZM142.289 22.1982C140.01 22.1982 138.1 21.4071 136.489 19.7958L134.721 21.5636C136.801 23.6437 139.347 24.6982 142.289 24.6982V22.1982ZM136.489 19.7958C134.877 18.1845 134.086 16.2745 134.086 13.9956H131.586C131.586 16.9375 132.641 19.4834 134.721 21.5636L136.489 19.7958ZM134.086 13.9956C134.086 11.6888 134.883 9.77844 136.496 8.18853L134.741 6.40815C132.644 8.47449 131.586 11.029 131.586 13.9956H134.086ZM136.493 8.1906C138.115 6.5994 140.074 5.80615 142.447 5.80615V3.30615C139.441 3.30615 136.847 4.34103 134.743 6.40608L136.493 8.1906ZM142.289 8.60596C140.842 8.60596 139.582 9.15484 138.578 10.2048L140.384 11.9329C140.927 11.3657 141.539 11.106 142.289 11.106V8.60596ZM138.578 10.2048C137.576 11.2515 137.071 12.5387 137.071 13.9956H139.571C139.571 13.1674 139.838 12.5034 140.384 11.9329L138.578 10.2048ZM137.071 13.9956C137.071 15.4525 137.576 16.7398 138.578 17.7864L140.384 16.0583C139.838 15.4878 139.571 14.8238 139.571 13.9956H137.071ZM138.582 17.7915C139.592 18.8347 140.848 19.3853 142.289 19.3853V16.8853C141.55 16.8853 140.935 16.6272 140.379 16.0532L138.582 17.7915ZM142.289 19.3853C143.737 19.3853 145 18.8461 146.001 17.7993L144.194 16.0717C143.665 16.6246 143.055 16.8853 142.289 16.8853V19.3853ZM146 17.7996C147.003 16.751 147.507 15.4585 147.507 13.9956H145.007C145.007 14.8354 144.738 15.5029 144.194 16.0715L146 17.7996ZM147.507 13.9956C147.507 12.5325 147.003 11.2417 145.996 10.1999L144.198 11.9378C144.738 12.4956 145.007 13.156 145.007 13.9956H147.507ZM146.005 10.21C145.006 9.15312 143.742 8.60596 142.289 8.60596V11.106C143.051 11.106 143.659 11.3674 144.189 11.9277L146.005 10.21Z" fill="white"/>
  </g>
  <defs>
    <clipPath id="clip0">
      <rect width="157" height="25" fill="white"/>
    </clipPath>
  </defs>
</svg>
