<svg xmlns="http://www.w3.org/2000/svg" xmlns:xlink="http://www.w3.org/1999/xlink" viewBox="0 0 185.13 38.83"><defs><style>.cls-1{fill:url(#linear-gradient);}.cls-2{fill:url(#Summer);}.cls-3,.cls-4,.cls-8{fill:#ececec;}.cls-4{font-size:24.27px;}.cls-4,.cls-8{font-family:VerminVibes2Soft, "Vermin Vibes 2 Soft";}.cls-5{fill:#ffae2e;}.cls-6{fill:url(#Summer-2);}.cls-7{fill:url(#Summer-3);}.cls-8{font-size:6.94px;}</style><linearGradient id="linear-gradient" x1="26.21" y1="25.33" x2="35.3" y2="25.33" gradientUnits="userSpaceOnUse"><stop offset="0" stop-color="#81358a"/><stop offset="1" stop-color="#2967af"/></linearGradient><radialGradient id="Summer" cx="30.76" cy="25.33" r="4.06" gradientUnits="userSpaceOnUse"><stop offset="0" stop-color="#fff"/><stop offset="0.09" stop-color="#ffedd8"/><stop offset="0.21" stop-color="#ffd5a7"/><stop offset="0.33" stop-color="#ffc17d"/><stop offset="0.46" stop-color="#ffb05b"/><stop offset="0.59" stop-color="#ffa340"/><stop offset="0.72" stop-color="#ff9a2d"/><stop offset="0.86" stop-color="#ff9522"/><stop offset="1" stop-color="#ff931e"/></radialGradient><radialGradient id="Summer-2" cx="83.8" cy="35.8" r="38.62" xlink:href="#Summer"/><radialGradient id="Summer-3" cx="147.46" cy="35.03" r="3.83" xlink:href="#Summer"/></defs><title>logo_final</title><g id="Layer_2" data-name="Layer 2"><g id="Layer_1-2" data-name="Layer 1"><path class="cls-1" d="M35.3,22.84a11.17,11.17,0,0,1-9.09,6V26.33a8.64,8.64,0,0,0,5-4.52A3.7,3.7,0,0,0,34.12,23,4.48,4.48,0,0,0,35.3,22.84Z"/><path class="cls-2" d="M35.3,22.84a11.17,11.17,0,0,1-9.09,6V26.33a8.64,8.64,0,0,0,5-4.52A3.7,3.7,0,0,0,34.12,23,4.48,4.48,0,0,0,35.3,22.84Z"/><path class="cls-3" d="M36.05,18.5c0-.17,0-.35,0-.52l0-.18c-.61-4.16-3.82-7.62-8.19-9.19a14.49,14.49,0,0,0-3-.73V6h0V1.73A2.15,2.15,0,0,0,22.55,0C21.79,0,21,0,20.3.1A23.4,23.4,0,0,0,3.89,8.45l-.35.45c-.11.15-.22.29-.32.44s-.25.37-.37.55c-.26.4-.5.8-.73,1.22q-.18.32-.33.63A12.4,12.4,0,0,0,1.21,13c-.07.16-.13.32-.19.49-.14.39-.27.78-.38,1.18-.05.18-.1.35-.14.53a2.74,2.74,0,0,0-.09.39A3.15,3.15,0,0,0,.32,16q-.09.42-.15.84l0,.31c0,.38-.08.77-.1,1.15s0,.62,0,.93,0,.63,0,.94a15.47,15.47,0,0,0,.28,2.27c0,.15.06.3.1.45s.06.28.1.43.08.32.13.49c.11.39.24.79.38,1.18l0,.07c.05.14.1.28.16.42a13.43,13.43,0,0,0,.58,1.29c.09.18.18.36.28.54.22.41.45.8.7,1.19l.37.56.35.48.34.45.36.45.38.43c.09.11.19.21.29.31l.1.12.33.34.09.09c.12.13.25.24.38.37l0,0a.65.65,0,0,0,.12.11l.12.12.4.35.21.18,0,0,.11.09.29.24,0,0,.09.06c.1.09.21.16.31.24l.26.2L8,34l.32.22,0,0,.29.2.12.08.27.18,0,0,.65.41.3.17.52.29h0l.51.26h0a5.6,5.6,0,0,0,.55.27l.27.13.28.12.58.25.57.23.6.21.6.21.12,0,.48.15.61.17.31.08.31.08.45.1.1,0L17,38l.65.13h0l.31.06.32.05.33,0,.32.05.66.08.66.06c.74.07,1.49.1,2.25.1h.32a1.87,1.87,0,0,0,1.92-1.49V26.75h0a10.81,10.81,0,0,1-2.23.23,10.34,10.34,0,0,1-2.25-.24A9.31,9.31,0,0,1,19,26.35l-.11,0-.36-.15-.16-.07L18,25.91l0,0a6.12,6.12,0,0,1-.56-.31,4.65,4.65,0,0,1-.52-.34,7.71,7.71,0,0,1-1.07-.88,2.91,2.91,0,0,1-.3-.31c-.1-.1-.19-.21-.28-.32a1.2,1.2,0,0,1-.17-.21,2.35,2.35,0,0,1-.19-.25l-.1-.14a3.45,3.45,0,0,1-.2-.32c-.06-.09-.11-.18-.16-.27l-.09-.17c-.06-.11-.11-.23-.17-.35S14,21.74,14,21.6s-.1-.28-.14-.42l9.69,0a2.49,2.49,0,0,0,1.29-.35,1.81,1.81,0,0,0,.95-1.55v0a1.42,1.42,0,0,0,0-.34,2,2,0,0,0-.91-1.16,3,3,0,0,0-1.57-.45H6.51A1.39,1.39,0,0,1,5,15.69C6.6,9.93,12,5.42,18.79,4.19A1.23,1.23,0,0,1,20.3,5.26V7.88c-4.89.69-8.89,3.63-10.5,7.54h3.45a3.2,3.2,0,0,0,1.2-.23,8.17,8.17,0,0,1,.68-.9,9.86,9.86,0,0,1,7.43-3.18c5,0,9.07,3.37,9.27,7.6,0,.11,0,.22,0,.33a6.2,6.2,0,0,1-.09,1.05,2.53,2.53,0,0,0,2.33,1.35A2.13,2.13,0,0,0,35.39,21,1.56,1.56,0,0,0,36,19.91c0-.32.06-.58.06-.64C36.08,19,36.07,18.75,36.05,18.5ZM6.39,21.18H9.21c.93,4.85,5.41,8.68,11.09,9.49v2.46a1.38,1.38,0,0,1-1.74,1.18C11.81,33,6.5,28.48,5,22.71A1.32,1.32,0,0,1,6.39,21.18Z"/><text class="cls-4" transform="translate(37.47 28.39) scale(1.17 1)">ebu<tspan class="cls-5" x="53.34" y="0">gg</tspan><tspan x="88.89" y="0">er</tspan></text><rect class="cls-6" x="29.19" y="34.75" width="109.21" height="2.1"/><ellipse class="cls-7" cx="147.46" cy="35.03" rx="4.12" ry="3.52"/><text class="cls-8" transform="translate(154.38 37.52) scale(1.17 1)">TEch</text></g></g></svg>